<svg version="1.2" xmlns="http://www.w3.org/2000/svg" viewBox="0 0 2525 2525" width="2525" height="2525">
	<style>
		.s0 { fill: none;stroke: #828282;stroke-linejoin: round;stroke-width: 57.7 } 
		.s1 { fill: #eab700;stroke: #000000;stroke-linejoin: round;stroke-width: 57.7 } 
	</style>
	<g>
		<path fill-rule="evenodd" class="s0" d="m676.47 2443.56l-583.49-2362.12 2339.04 673.42z"/>
		<path fill-rule="evenodd" class="s0" d="m1262.07 418.21l291.53 1181.42-1168.87-336.82z"/>
		<path fill-rule="evenodd" class="s0" d="m972.03 1423.04l-144.79-586.88 580.71 166.7zm-289.66-1173.05l144.8 586.88-580.71-166.7zm1161.37 334.55l144.8 586.89-580.71-166.7zm-871.65 838.9l144.8 586.89-580.72-166.7z"/>
		<path id="Forma 1" fill-rule="evenodd" class="s1" d="m1070.14 1589.2c-277.09 0-501.07-223.98-501.07-501.06 0-277.09 223.98-501.07 501.07-501.07 277.08 0 501.06 223.98 501.06 501.07 0 277.08-223.98 501.06-501.06 501.06z"/>
	</g>
</svg>