<svg version="1.2" xmlns="http://www.w3.org/2000/svg" viewBox="0 0 2524.6781735265254 2524.6781735265254" width="2525" height="2525">
	<style>
		.s0 { fill: none;stroke: #000000;stroke-linejoin: round;stroke-width: 57.7 } 
		.s1 { fill: #eab700;stroke: #000000;stroke-linejoin: round;stroke-width: 57.7 } 
	</style>
	<g>
		<path fill-rule="evenodd" class="s0" d="m676.38 2443.25l-583.41-2361.82 2338.74 673.33z"/>
		<path fill-rule="evenodd" class="s0" d="m1261.91 418.16l291.49 1181.27-1168.72-336.78z"/>
		<path fill-rule="evenodd" class="s0" d="m971.91 1422.86l-144.78-586.81 580.64 166.68zm-289.62-1172.9l144.78 586.81-580.64-166.68zm1161.23 334.51l144.78 586.81-580.64-166.68zm-871.54 838.8l144.78 586.81-580.64-166.68z"/>
		<path id="Forma 1" fill-rule="evenodd" class="s1" d="m1070 1589c-277.05 0-501-223.95-501-501 0-277.05 223.95-501 501-501 277.05 0 501 223.95 501 501 0 277.05-223.95 501-501 501z"/>
	</g>
</svg>